# ProBuilder 5.0.6
# https://unity3d.com/unity/features/worldbuilding/probuilder
# 2022-11-18 1:48:34 PM

mtllib ./EnemyBossShip-Fueler_-_HULL_MERGED.mtl
o EnemyBossShip-Fueler - HULL MERGED

g EnemyBossShip-Fueler - HULL MERGED
v -0.5 -0.5 0.5
v -0.5 0.5 0.5
v 0.5 0.5 0.5
v 0.5 -0.5 0.5
v -0.5 0.5 -0.5
v 0.5 0.5 -0.5
v -0.5 -0.5 -0.5
v 0.5 -0.5 -0.5
v -0.7433099 3.880459 0.01081643
v -0.7433099 3.880459 -0.3163847
v 0 4.623769 -0.3163848
v 0 4.623769 0.01081632
v 0 3.137149 -0.3163847
v 0.7433099 3.880459 -0.3163847
v 0 3.137149 0.01081643
v 0.7433099 3.880459 0.01081643
v -2.508825 5.71629 -0.4963066
v -2.508825 3.226303 -1.271351
v -2.026099 3.226303 -1.271351
v -2.026099 5.71629 -0.4963066
v -2.508825 1.775313 -0.8197092
v -2.026099 1.775313 -0.8197092
v -2.508825 4.265299 -0.04466453
v -2.026099 4.265299 -0.04466453
v -0.7433099 2.163211 0.01081653
v -0.7433099 2.163211 -0.3163846
v 0 2.906521 -0.3163847
v 0 2.906521 0.01081648
v 0 1.419901 -0.3163846
v 0.7433099 2.163211 -0.3163846
v 0 1.419901 0.01081651
v 0.7433099 2.163211 0.01081653
v -0.7239662 6.419988 -0.2986592
v -0.7239662 6.419988 -0.4999645
v 0.723966 6.419988 -0.4999645
v 0.723966 6.419988 -0.2986592
v -0.7239662 1.398847 -0.4999644
v 0.723966 1.398847 -0.4999644
v -0.7239662 1.398848 -0.298659
v 0.723966 1.398848 -0.298659
v -0.7239662 4.074988 -0.4926046
v -0.7239662 4.074988 -0.9432949
v 0.723966 4.074988 -0.9432949
v 0.723966 4.074988 -0.4926046
v -0.7239662 -0.5767842 -0.9432946
v 0.723966 -0.5767842 -0.9432946
v -0.7239662 -0.5767838 -0.4926044
v 0.723966 -0.5767838 -0.4926044
v -2.17045 3.498592 -0.6274332
v -2.17045 2.474749 -0.9461196
v -0.7225182 2.474749 -0.9461196
v -0.7225182 3.498592 -0.6274332
v -2.17045 2.03251 -0.8084661
v -0.7225182 2.03251 -0.8084661
v -2.17045 3.056353 -0.48978
v -0.7225182 3.056353 -0.48978
v -0.7433099 5.311017 0.01081632
v -0.7433099 5.311016 -0.3163847
v 0 6.054326 -0.3163848
v 0 6.054326 0.01081643
v 0 4.567707 -0.3163848
v 0.7433099 5.311016 -0.3163847
v 0 4.567707 0.01081632
v 0.7433099 5.311017 0.01081632

vt 0 0
vt 0 1
vt 1 1
vt 1 0

vn 0 0 1
vn 0 1 0
vn 0 0 -1
vn 0 -1 0
vn 1 0 0
vn -1 0 0
vn -0.7071071 0.7071065 -2.576203E-07
vn 0.7071068 -0.7071068 5.152408E-07
vn 0.7071071 0.7071065 -2.576203E-07
vn -0.7071068 -0.7071068 5.152408E-07
vn 0 0.2972001 -0.9548153
vn 0 -0.2972001 -0.9548152
vn 0 -0.2972002 0.9548152
vn 0 0.2972002 0.9548152

usemtl Lit
f 4/4/1 3/3/1 2/2/1 1/1/1
f 3/4/2 6/3/2 5/2/2 2/1/2
f 6/4/3 8/3/3 7/2/3 5/1/3
f 8/4/4 4/3/4 1/2/4 7/1/4
f 8/4/5 6/3/5 3/2/5 4/1/5
f 1/4/6 2/3/6 5/2/6 7/1/6
f 12/4/7 11/3/7 10/2/7 9/1/7
f 11/4/3 14/3/3 13/2/3 10/1/3
f 14/4/8 16/3/8 15/2/8 13/1/8
f 16/4/1 12/3/1 9/2/1 15/1/1
f 16/4/9 14/3/9 11/2/9 12/1/9
f 9/4/10 10/3/10 13/2/10 15/1/10
f 20/4/11 19/3/11 18/2/11 17/1/11
f 19/4/12 22/3/12 21/2/12 18/1/12
f 22/4/13 24/3/13 23/2/13 21/1/13
f 24/4/14 20/3/14 17/2/14 23/1/14
f 24/4/5 22/3/5 19/2/5 20/1/5
f 17/4/6 18/3/6 21/2/6 23/1/6
f 28/4/7 27/3/7 26/2/7 25/1/7
f 27/4/3 30/3/3 29/2/3 26/1/3
f 30/4/8 32/3/8 31/2/8 29/1/8
f 32/4/1 28/3/1 25/2/1 31/1/1
f 32/4/9 30/3/9 27/2/9 28/1/9
f 25/4/10 26/3/10 29/2/10 31/1/10
f 36/4/2 35/3/2 34/2/2 33/1/2
f 35/4/3 38/3/3 37/2/3 34/1/3
f 38/4/4 40/3/4 39/2/4 37/1/4
f 40/4/1 36/3/1 33/2/1 39/1/1
f 40/4/5 38/3/5 35/2/5 36/1/5
f 33/4/6 34/3/6 37/2/6 39/1/6
f 44/4/2 43/3/2 42/2/2 41/1/2
f 43/4/3 46/3/3 45/2/3 42/1/3
f 46/4/4 48/3/4 47/2/4 45/1/4
f 48/4/1 44/3/1 41/2/1 47/1/1
f 48/4/5 46/3/5 43/2/5 44/1/5
f 41/4/6 42/3/6 45/2/6 47/1/6
f 52/4/11 51/3/11 50/2/11 49/1/11
f 51/4/12 54/3/12 53/2/12 50/1/12
f 54/4/13 56/3/13 55/2/13 53/1/13
f 56/4/14 52/3/14 49/2/14 55/1/14
f 56/4/5 54/3/5 51/2/5 52/1/5
f 49/4/6 50/3/6 53/2/6 55/1/6
f 60/4/7 59/3/7 58/2/7 57/1/7
f 59/4/3 62/3/3 61/2/3 58/1/3
f 62/4/8 64/3/8 63/2/8 61/1/8
f 64/4/1 60/3/1 57/2/1 63/1/1
f 64/4/9 62/3/9 59/2/9 60/1/9
f 57/4/10 58/3/10 61/2/10 63/1/10
f 12/4/7 11/3/7 10/2/7 9/1/7
f 11/4/3 14/3/3 13/2/3 10/1/3
f 14/4/8 16/3/8 15/2/8 13/1/8
f 16/4/1 12/3/1 9/2/1 15/1/1
f 16/4/9 14/3/9 11/2/9 12/1/9
f 9/4/10 10/3/10 13/2/10 15/1/10
f 20/4/11 19/3/11 18/2/11 17/1/11
f 19/4/12 22/3/12 21/2/12 18/1/12
f 22/4/13 24/3/13 23/2/13 21/1/13
f 24/4/14 20/3/14 17/2/14 23/1/14
f 24/4/5 22/3/5 19/2/5 20/1/5
f 17/4/6 18/3/6 21/2/6 23/1/6
f 28/4/7 27/3/7 26/2/7 25/1/7
f 27/4/3 30/3/3 29/2/3 26/1/3
f 30/4/8 32/3/8 31/2/8 29/1/8
f 32/4/1 28/3/1 25/2/1 31/1/1
f 32/4/9 30/3/9 27/2/9 28/1/9
f 25/4/10 26/3/10 29/2/10 31/1/10
f 36/4/2 35/3/2 34/2/2 33/1/2
f 35/4/3 38/3/3 37/2/3 34/1/3
f 38/4/4 40/3/4 39/2/4 37/1/4
f 40/4/1 36/3/1 33/2/1 39/1/1
f 40/4/5 38/3/5 35/2/5 36/1/5
f 33/4/6 34/3/6 37/2/6 39/1/6
f 44/4/2 43/3/2 42/2/2 41/1/2
f 43/4/3 46/3/3 45/2/3 42/1/3
f 46/4/4 48/3/4 47/2/4 45/1/4
f 48/4/1 44/3/1 41/2/1 47/1/1
f 48/4/5 46/3/5 43/2/5 44/1/5
f 41/4/6 42/3/6 45/2/6 47/1/6
f 52/4/11 51/3/11 50/2/11 49/1/11
f 51/4/12 54/3/12 53/2/12 50/1/12
f 54/4/13 56/3/13 55/2/13 53/1/13
f 56/4/14 52/3/14 49/2/14 55/1/14
f 56/4/5 54/3/5 51/2/5 52/1/5
f 49/4/6 50/3/6 53/2/6 55/1/6
f 60/4/7 59/3/7 58/2/7 57/1/7
f 59/4/3 62/3/3 61/2/3 58/1/3
f 62/4/8 64/3/8 63/2/8 61/1/8
f 64/4/1 60/3/1 57/2/1 63/1/1
f 64/4/9 62/3/9 59/2/9 60/1/9
f 57/4/10 58/3/10 61/2/10 63/1/10
f 12/4/7 11/3/7 10/2/7 9/1/7
f 11/4/3 14/3/3 13/2/3 10/1/3
f 14/4/8 16/3/8 15/2/8 13/1/8
f 16/4/1 12/3/1 9/2/1 15/1/1
f 16/4/9 14/3/9 11/2/9 12/1/9
f 9/4/10 10/3/10 13/2/10 15/1/10
f 20/4/11 19/3/11 18/2/11 17/1/11
f 19/4/12 22/3/12 21/2/12 18/1/12
f 22/4/13 24/3/13 23/2/13 21/1/13
f 24/4/14 20/3/14 17/2/14 23/1/14
f 24/4/5 22/3/5 19/2/5 20/1/5
f 17/4/6 18/3/6 21/2/6 23/1/6
f 28/4/7 27/3/7 26/2/7 25/1/7
f 27/4/3 30/3/3 29/2/3 26/1/3
f 30/4/8 32/3/8 31/2/8 29/1/8
f 32/4/1 28/3/1 25/2/1 31/1/1
f 32/4/9 30/3/9 27/2/9 28/1/9
f 25/4/10 26/3/10 29/2/10 31/1/10
f 36/4/2 35/3/2 34/2/2 33/1/2
f 35/4/3 38/3/3 37/2/3 34/1/3
f 38/4/4 40/3/4 39/2/4 37/1/4
f 40/4/1 36/3/1 33/2/1 39/1/1
f 40/4/5 38/3/5 35/2/5 36/1/5
f 33/4/6 34/3/6 37/2/6 39/1/6
f 44/4/2 43/3/2 42/2/2 41/1/2
f 43/4/3 46/3/3 45/2/3 42/1/3
f 46/4/4 48/3/4 47/2/4 45/1/4
f 48/4/1 44/3/1 41/2/1 47/1/1
f 48/4/5 46/3/5 43/2/5 44/1/5
f 41/4/6 42/3/6 45/2/6 47/1/6
f 52/4/11 51/3/11 50/2/11 49/1/11
f 51/4/12 54/3/12 53/2/12 50/1/12
f 54/4/13 56/3/13 55/2/13 53/1/13
f 56/4/14 52/3/14 49/2/14 55/1/14
f 56/4/5 54/3/5 51/2/5 52/1/5
f 49/4/6 50/3/6 53/2/6 55/1/6
f 60/4/7 59/3/7 58/2/7 57/1/7
f 59/4/3 62/3/3 61/2/3 58/1/3
f 62/4/8 64/3/8 63/2/8 61/1/8
f 64/4/1 60/3/1 57/2/1 63/1/1
f 64/4/9 62/3/9 59/2/9 60/1/9
f 57/4/10 58/3/10 61/2/10 63/1/10
f 12/4/7 11/3/7 10/2/7 9/1/7
f 11/4/3 14/3/3 13/2/3 10/1/3
f 14/4/8 16/3/8 15/2/8 13/1/8
f 16/4/1 12/3/1 9/2/1 15/1/1
f 16/4/9 14/3/9 11/2/9 12/1/9
f 9/4/10 10/3/10 13/2/10 15/1/10
f 20/4/11 19/3/11 18/2/11 17/1/11
f 19/4/12 22/3/12 21/2/12 18/1/12
f 22/4/13 24/3/13 23/2/13 21/1/13
f 24/4/14 20/3/14 17/2/14 23/1/14
f 24/4/5 22/3/5 19/2/5 20/1/5
f 17/4/6 18/3/6 21/2/6 23/1/6
f 28/4/7 27/3/7 26/2/7 25/1/7
f 27/4/3 30/3/3 29/2/3 26/1/3
f 30/4/8 32/3/8 31/2/8 29/1/8
f 32/4/1 28/3/1 25/2/1 31/1/1
f 32/4/9 30/3/9 27/2/9 28/1/9
f 25/4/10 26/3/10 29/2/10 31/1/10
f 36/4/2 35/3/2 34/2/2 33/1/2
f 35/4/3 38/3/3 37/2/3 34/1/3
f 38/4/4 40/3/4 39/2/4 37/1/4
f 40/4/1 36/3/1 33/2/1 39/1/1
f 40/4/5 38/3/5 35/2/5 36/1/5
f 33/4/6 34/3/6 37/2/6 39/1/6
f 44/4/2 43/3/2 42/2/2 41/1/2
f 43/4/3 46/3/3 45/2/3 42/1/3
f 46/4/4 48/3/4 47/2/4 45/1/4
f 48/4/1 44/3/1 41/2/1 47/1/1
f 48/4/5 46/3/5 43/2/5 44/1/5
f 41/4/6 42/3/6 45/2/6 47/1/6
f 52/4/11 51/3/11 50/2/11 49/1/11
f 51/4/12 54/3/12 53/2/12 50/1/12
f 54/4/13 56/3/13 55/2/13 53/1/13
f 56/4/14 52/3/14 49/2/14 55/1/14
f 56/4/5 54/3/5 51/2/5 52/1/5
f 49/4/6 50/3/6 53/2/6 55/1/6
f 60/4/7 59/3/7 58/2/7 57/1/7
f 59/4/3 62/3/3 61/2/3 58/1/3
f 62/4/8 64/3/8 63/2/8 61/1/8
f 64/4/1 60/3/1 57/2/1 63/1/1
f 64/4/9 62/3/9 59/2/9 60/1/9
f 57/4/10 58/3/10 61/2/10 63/1/10
f 12/4/7 11/3/7 10/2/7 9/1/7
f 11/4/3 14/3/3 13/2/3 10/1/3
f 14/4/8 16/3/8 15/2/8 13/1/8
f 16/4/1 12/3/1 9/2/1 15/1/1
f 16/4/9 14/3/9 11/2/9 12/1/9
f 9/4/10 10/3/10 13/2/10 15/1/10
f 20/4/11 19/3/11 18/2/11 17/1/11
f 19/4/12 22/3/12 21/2/12 18/1/12
f 22/4/13 24/3/13 23/2/13 21/1/13
f 24/4/14 20/3/14 17/2/14 23/1/14
f 24/4/5 22/3/5 19/2/5 20/1/5
f 17/4/6 18/3/6 21/2/6 23/1/6
f 28/4/7 27/3/7 26/2/7 25/1/7
f 27/4/3 30/3/3 29/2/3 26/1/3
f 30/4/8 32/3/8 31/2/8 29/1/8
f 32/4/1 28/3/1 25/2/1 31/1/1
f 32/4/9 30/3/9 27/2/9 28/1/9
f 25/4/10 26/3/10 29/2/10 31/1/10
f 36/4/2 35/3/2 34/2/2 33/1/2
f 35/4/3 38/3/3 37/2/3 34/1/3
f 38/4/4 40/3/4 39/2/4 37/1/4
f 40/4/1 36/3/1 33/2/1 39/1/1
f 40/4/5 38/3/5 35/2/5 36/1/5
f 33/4/6 34/3/6 37/2/6 39/1/6
f 44/4/2 43/3/2 42/2/2 41/1/2
f 43/4/3 46/3/3 45/2/3 42/1/3
f 46/4/4 48/3/4 47/2/4 45/1/4
f 48/4/1 44/3/1 41/2/1 47/1/1
f 48/4/5 46/3/5 43/2/5 44/1/5
f 41/4/6 42/3/6 45/2/6 47/1/6
f 52/4/11 51/3/11 50/2/11 49/1/11
f 51/4/12 54/3/12 53/2/12 50/1/12
f 54/4/13 56/3/13 55/2/13 53/1/13
f 56/4/14 52/3/14 49/2/14 55/1/14
f 56/4/5 54/3/5 51/2/5 52/1/5
f 49/4/6 50/3/6 53/2/6 55/1/6
f 60/4/7 59/3/7 58/2/7 57/1/7
f 59/4/3 62/3/3 61/2/3 58/1/3
f 62/4/8 64/3/8 63/2/8 61/1/8
f 64/4/1 60/3/1 57/2/1 63/1/1
f 64/4/9 62/3/9 59/2/9 60/1/9
f 57/4/10 58/3/10 61/2/10 63/1/10

